<svg xmlns="http://www.w3.org/2000/svg" viewBox="0 0 688.807283 135.981392">
<g transform="translate(-13.191318,148.981392) scale(0.100000,-0.100000)" fill="currentColor" stroke="none">
<path d="M757 1483 c-14 -13 -7 -43 12 -53 15 -7 23 -6 35 6 19 19 20 26 4 42
-13 13 -41 16 -51 5z"/>
<path d="M1208 1431 c-75 -31 -139 -59 -142 -62 -4 -3 15 -20 40 -38 25 -18
44 -37 42 -41 -5 -13 -392 -499 -398 -499 -3 0 -34 36 -69 80 -34 43 -66 79
-70 79 -7 0 -472 -574 -479 -591 -2 -4 13 -17 33 -29 45 -28 18 -54 255 245
100 127 186 231 189 233 4 1 36 -34 71 -78 34 -44 66 -80 71 -80 4 0 112 132
241 294 l234 295 48 -41 c26 -22 48 -39 50 -37 4 5 46 289 46 312 0 9 -6 17
-12 16 -7 0 -75 -26 -150 -58z"/>
<path d="M886 1394 c-19 -18 -19 -20 -6 -45 14 -25 56 -25 70 1 23 44 -29 80
-64 44z"/>
<path d="M750 1310 c-24 -24 -24 -29 -4 -58 17 -24 53 -29 72 -10 19 19 14 55
-10 72 -29 20 -34 20 -58 -4z"/>
<path d="M260 953 c0 -202 4 -363 8 -357 4 5 25 30 45 56 l37 46 0 266 0 266
65 0 65 0 2 -181 3 -181 42 52 43 53 0 173 0 174 -155 0 -155 0 0 -367z"/>
<path d="M876 1224 c-21 -21 -20 -57 2 -77 52 -47 115 11 82 74 -13 23 -62 26
-84 3z"/>
<path d="M740 1110 c-25 -25 -26 -72 -2 -93 40 -36 112 -6 112 46 0 29 -39 67
-68 67 -12 0 -31 -9 -42 -20z"/>
<path d="M1477 1004 c-4 -4 -7 -101 -7 -216 l0 -208 46 0 46 0 -4 159 c-1 88
0 157 5 154 4 -2 7 -11 7 -19 0 -14 34 -158 60 -255 10 -38 12 -39 54 -39 l43
0 41 163 40 162 1 -162 1 -163 40 0 40 0 0 215 0 215 -60 0 c-46 0 -61 -4 -68
-17 -5 -10 -24 -82 -42 -160 -19 -79 -36 -141 -38 -138 -3 3 -22 73 -42 157
l-36 153 -60 3 c-33 2 -63 0 -67 -4z"/>
<path d="M1970 970 l0 -40 40 0 40 0 0 40 0 40 -40 0 -40 0 0 -40z"/>
<path d="M2440 796 l0 -216 39 0 39 0 4 106 c3 97 5 107 27 125 30 24 46 24
71 -1 17 -17 20 -33 20 -125 l0 -105 40 0 40 0 0 119 c0 66 -4 131 -10 145
-20 53 -123 72 -164 31 -8 -8 -17 -15 -20 -15 -3 0 -6 33 -8 73 l-3 72 -37 3
-38 3 0 -215z"/>
<path d="M3467 1003 c-4 -3 -7 -100 -7 -215 l0 -208 43 0 42 0 -3 215 -3 215
-33 0 c-18 0 -36 -3 -39 -7z"/>
<path d="M3777 1004 c-4 -4 -7 -101 -7 -216 l0 -208 45 0 45 0 0 64 c0 54 4
70 24 92 l23 28 62 -92 62 -92 54 0 c30 0 55 2 55 4 0 3 -36 56 -80 119 -44
63 -80 120 -80 127 0 7 35 49 78 94 l77 81 -55 3 -55 3 -82 -88 -82 -88 -3 85
-3 85 -35 3 c-20 2 -39 0 -43 -4z"/>
<path d="M4510 970 l0 -40 40 0 40 0 0 40 0 40 -40 0 -40 0 0 -40z"/>
<path d="M5720 795 l0 -215 150 0 150 0 0 35 0 34 -102 3 -103 3 -3 178 -2
177 -45 0 -45 0 0 -215z"/>
<path d="M6397 1004 c-4 -4 -7 -101 -7 -216 l0 -208 46 0 c27 0 43 4 39 10 -9
14 5 12 35 -5 65 -37 147 -5 175 69 21 54 16 143 -10 182 -40 61 -129 81 -175
39 -18 -17 -19 -15 -22 56 l-3 74 -35 3 c-20 2 -39 0 -43 -4z m188 -199 c20
-19 25 -34 25 -72 0 -64 -21 -93 -65 -93 -45 0 -68 34 -67 98 0 37 5 51 27 69
33 29 50 29 80 -2z"/>
<path d="M2203 893 c-35 -7 -79 -57 -93 -107 -18 -67 -6 -130 34 -174 31 -33
39 -36 99 -40 62 -4 66 -3 101 29 19 19 38 46 42 62 6 26 4 27 -31 27 -28 0
-42 -6 -57 -25 -25 -32 -71 -34 -92 -3 -9 12 -16 42 -16 66 0 92 54 131 104
77 17 -18 34 -25 60 -25 42 0 45 11 16 58 -31 50 -91 70 -167 55z"/>
<path d="M2864 893 c-26 -5 -69 -50 -79 -80 -6 -21 -3 -23 35 -23 28 0 43 5
47 16 16 42 107 35 101 -8 -3 -19 -13 -24 -73 -35 -87 -16 -120 -44 -120 -104
0 -33 6 -46 28 -65 35 -29 110 -33 147 -7 17 12 25 13 28 5 2 -7 23 -12 48
-12 43 0 43 1 34 26 -6 14 -10 70 -10 125 0 55 -5 109 -11 121 -20 38 -99 56
-175 41z m106 -201 c0 -39 -30 -64 -72 -60 -29 3 -33 6 -33 33 0 26 5 31 40
41 59 18 65 17 65 -14z"/>
<path d="M3195 886 c-85 -39 -117 -154 -68 -249 42 -83 203 -92 257 -15 9 12
16 28 16 35 0 21 -68 16 -97 -7 -14 -11 -33 -20 -43 -20 -26 0 -70 39 -70 61
0 18 8 19 111 19 l112 0 -7 46 c-11 86 -59 135 -135 141 -26 2 -59 -3 -76 -11z
m107 -73 c35 -32 23 -43 -47 -43 -69 0 -78 7 -45 40 24 24 67 26 92 3z"/>
<path d="M4234 886 c-35 -15 -64 -51 -64 -78 0 -27 66 -25 89 3 20 25 66 28
89 6 23 -24 1 -43 -60 -51 -93 -13 -128 -43 -128 -111 0 -73 92 -110 170 -70
17 9 30 11 30 5 0 -5 19 -10 43 -10 l42 0 -3 122 c-3 88 -8 130 -19 146 -30
47 -124 66 -189 38z m122 -198 c-8 -41 -32 -60 -70 -56 -66 7 -55 61 15 78 60
14 62 13 55 -22z"/>
<path d="M4800 893 c-8 -3 -25 -15 -37 -26 l-23 -20 0 21 c0 19 -6 22 -40 22
l-40 0 0 -155 0 -155 45 0 45 0 0 98 c0 112 11 132 69 132 32 0 32 1 29 42 -3
43 -15 53 -48 41z"/>
<path d="M4963 890 c-66 -21 -100 -92 -91 -191 8 -81 67 -129 160 -129 98 0
152 57 152 160 1 62 -22 110 -66 143 -31 23 -107 31 -155 17z m107 -78 c16
-13 24 -32 27 -68 6 -64 -21 -104 -71 -104 -58 0 -90 64 -66 134 18 56 67 73
110 38z"/>
<path d="M5294 886 c-97 -42 -80 -148 27 -176 81 -21 94 -27 97 -45 9 -41 -78
-50 -104 -10 -12 18 -25 25 -50 25 -42 0 -49 -12 -29 -50 21 -41 63 -60 132
-60 72 0 116 24 132 73 22 67 -22 112 -131 132 -50 9 -69 32 -43 51 28 21 53
17 79 -11 15 -16 34 -25 54 -25 39 0 43 8 27 46 -23 56 -119 81 -191 50z"/>
<path d="M6130 893 c-29 -11 -70 -57 -70 -80 0 -20 5 -23 40 -23 29 0 40 4 40
15 0 22 44 37 76 25 18 -7 25 -16 22 -32 -3 -19 -13 -24 -73 -35 -85 -15 -115
-42 -115 -104 0 -58 34 -89 97 -89 29 0 58 7 73 17 17 12 25 13 28 5 2 -7 22
-12 45 -12 l42 0 -5 128 c-5 141 -11 155 -67 179 -32 13 -104 16 -133 6z m112
-200 c-7 -41 -31 -63 -68 -63 -28 0 -35 5 -40 26 -8 31 0 39 46 52 60 17 68
15 62 -15z"/>
<path d="M6803 885 c-63 -27 -80 -117 -28 -151 13 -8 52 -23 87 -32 56 -15 63
-20 63 -42 0 -22 -5 -25 -37 -28 -30 -3 -43 2 -62 22 -30 33 -86 37 -86 6 0
-57 55 -90 147 -90 64 0 105 18 121 55 33 71 -1 118 -103 144 -56 14 -71 21
-73 38 -4 28 41 40 74 18 13 -8 24 -20 24 -25 0 -6 18 -10 40 -10 32 0 40 4
40 18 0 70 -121 115 -207 77z"/>
<path d="M1970 735 l0 -155 40 0 40 0 0 155 0 155 -40 0 -40 0 0 -155z"/>
<path d="M4510 735 l0 -155 40 0 40 0 0 155 0 155 -40 0 -40 0 0 -155z"/>
<path d="M547 669 l-67 -84 0 -182 0 -183 -65 0 -65 0 0 102 0 101 -45 -57
-45 -58 0 -89 0 -89 155 0 155 0 0 213 c1 198 2 214 21 236 24 30 0 54 224
-226 l177 -223 199 0 199 0 -192 238 c-105 130 -216 269 -247 309 -31 39 -58
72 -61 72 -3 0 -17 -16 -32 -35 l-27 -36 179 -223 c99 -123 180 -226 180 -229
0 -3 -35 -6 -77 -5 l-78 0 -197 247 c-109 136 -204 256 -211 266 -13 18 -18
14 -80 -65z"/>
</g>
</svg>