<svg xmlns="http://www.w3.org/2000/svg" viewBox="0 0 95.738649 106.447900">
<g transform="translate(-12.647929,119.447900) scale(0.100000,-0.100000)" fill="currentColor" stroke="none">
<path d="M956 1147 c-129 -54 -124 -47 -62 -92 14 -10 16 -18 9 -27 -118 -155
-297 -378 -302 -378 -3 1 -26 27 -51 60 -25 32 -49 58 -55 56 -9 -2 -54 -57
-287 -355 l-82 -103 25 -19 c13 -10 26 -19 30 -19 3 0 74 88 159 197 l153 196
26 -29 c14 -16 38 -44 52 -63 15 -18 31 -31 37 -27 6 3 81 96 168 207 86 110
165 210 174 222 l18 21 36 -28 c21 -15 39 -26 40 -25 6 6 39 250 35 253 -2 2
-58 -19 -123 -47z"/>
<path d="M604 1179 c-10 -17 23 -46 37 -32 7 7 9 19 6 27 -7 18 -33 21 -43 5z"/>
<path d="M704 1116 c-10 -26 4 -48 28 -44 17 2 23 10 23 28 0 18 -6 26 -23 28
-13 2 -25 -3 -28 -12z"/>
<path d="M230 778 l0 -283 35 40 34 40 1 208 0 207 45 0 45 0 0 -140 c0 -77 3
-140 8 -140 4 0 19 18 35 39 26 38 27 43 27 175 l0 136 -115 0 -115 0 0 -282z"/>
<path d="M595 1040 c-8 -27 12 -52 39 -48 16 2 21 10 21 33 0 25 -4 31 -27 33
-19 2 -28 -2 -33 -18z"/>
<path d="M700 986 c-28 -35 11 -93 48 -70 35 22 22 84 -18 84 -10 0 -23 -7
-30 -14z"/>
<path d="M598 899 c-21 -12 -24 -59 -6 -77 17 -17 54 -15 72 4 44 44 -12 105
-66 73z"/>
<path d="M441 545 l-51 -65 0 -140 0 -140 -45 0 -45 0 0 75 c0 41 -3 75 -7 75
-5 0 -20 -18 -36 -39 -23 -34 -27 -49 -27 -110 l0 -71 115 0 115 0 0 163 c0
141 3 165 18 185 l18 24 148 -186 147 -186 151 0 c119 0 148 3 141 13 -164
210 -368 462 -375 462 -5 0 -16 -12 -25 -26 -16 -26 -15 -27 121 -196 75 -94
136 -173 136 -177 0 -3 -26 -6 -58 -6 l-58 0 -158 200 c-87 110 -162 203 -166
205 -5 3 -31 -24 -59 -60z"/>
</g>
</svg>